#!OML:ASF H:\Not Pregnant\Project 1\Capture day 1\Session 1\non-pregnant.ASF
:FULLY-SPECIFIED
:DEGREES
415
root 4.83148 16.1336 18.7137 16.1971 16.2068 0.529485
lowerback 0.966007 2.98558 3.64904
upperback -8.43771 4.23013 -1.02821
thorax -9.10857 1.78328 -3.49163
lowerneck 27.2348 -13.1404 -30.1067
upperneck -25.5106 -21.6161 45.992
head -1.45407 -14.386 25.644
rclavicle 5.59082e-016 -6.75868e-015
rhumerus -29.6526 2.11118 -85.428
rradius 63.1453
rwrist 4.4428
rhand -2.95712 -4.61629
rfingers 7.12502
rthumb 22.7551 -33.2943
lclavicle 5.59082e-016 -6.75868e-015
lhumerus -58.4884 -20.5566 103.393
lradius 76.9764
lwrist 53.9909
lhand -27.3163 -15.7568
lfingers 7.12502
lthumb -0.725533 14.2218
rfemur -38.8825 3.11515 14.6668
rtibia 30.7562
rfoot -8.54465 8.38583
rtoes -31.9333
lfemur -11.7623 -14.1104 -17.2204
ltibia 21.3636
lfoot -19.1509 -16.017
ltoes -10.2973
416
root 4.82159 16.1358 18.7837 16.1433 16.2214 0.36874
lowerback 0.850176 2.9118 3.78044
upperback -8.48028 4.13832 -0.979551
thorax -9.09075 1.73054 -3.50031
lowerneck 27.0389 -13.0721 -30.1623
upperneck -25.1206 -21.5692 45.9841
head -1.32759 -14.3464 25.5856
rclavicle 7.81037e-014 2.66371e-014
rhumerus -30.7183 2.06102 -85.8965
rradius 62.5245
rwrist 3.62378
rhand -3.09498 -5.11881
rfingers 7.12502
rthumb 22.6228 -33.813
lclavicle 7.81037e-014 2.66371e-014
lhumerus -58.6539 -19.7807 103.324
lradius 77.0537
lwrist 54.2672
lhand -27.3651 -15.7508
lfingers 7.12502
lthumb -0.772731 14.2275
rfemur -38.7065 2.95914 15.0647
rtibia 30.9095
rfoot -8.78814 8.55822
rtoes -31.7154
lfemur -11.4198 -13.9595 -17.121
ltibia 21.3548
lfoot -19.1149 -15.4755
ltoes -11.0761
417
root 4.81084 16.1383 18.8526 16.0667 16.2445 0.213217
lowerback 0.756337 2.82988 3.88198
upperback -8.51507 4.03459 -0.924447
thorax -9.08081 1.67419 -3.48605
lowerneck 26.8256 -12.9994 -30.2298
upperneck -24.7094 -21.5221 45.9809
head -1.1894 -14.3052 25.5296
rclavicle 8.70677e-014 3.53837e-014
rhumerus -31.7513 1.95545 -86.3262
rradius 61.8775
rwrist 3.12171
rhand -3.23867 -5.48953
rfingers 7.12502
rthumb 22.4849 -34.2005
lclavicle 8.70677e-014 3.53837e-014
lhumerus -58.7887 -19.0007 103.26
lradius 77.1282
lwrist 54.554
lhand -27.4198 -15.7259
lfingers 7.12502
lthumb -0.825577 14.2522
rfemur -38.4946 2.83343 15.4488
rtibia 31.0401
rfoot -9.01407 8.68851
rtoes -31.4978
lfemur -11.0616 -13.7828 -17.0216
ltibia 21.3428
lfoot -19.0928 -14.9835
ltoes -11.9198
418
root 4.79923 16.1408 18.9186 16.0013 16.2652 0.0542502
lowerback 0.644656 2.75918 3.96012
upperback -8.54455 3.94345 -0.870653
thorax -9.05469 1.6264 -3.45995
lowerneck 26.6481 -12.9397 -30.2638
upperneck -24.3397 -21.4798 45.9779
head -1.07281 -14.2703 25.4787
rclavicle -2.86871e-014 0
rhumerus -32.7263 1.73534 -86.6797
rradius 61.1906
rwrist 2.95393
rhand -3.33302 -5.66153
rfingers 7.12502
rthumb 22.3943 -34.3834
lclavicle -2.86871e-014 0
lhumerus -58.8821 -18.2767 103.217
lradius 77.1845
lwrist 54.7956
lhand -27.467 -15.6616
lfingers 7.12502
lthumb -0.871123 14.3164
rfemur -38.2964 2.70494 15.836
rtibia 31.1457
rfoot -9.2257 8.82467
rtoes -31.2961
lfemur -10.7294 -13.5585 -16.9065
ltibia 21.3175
lfoot -19.0952 -14.5
ltoes -12.953
419
root 4.7865 16.1436 18.9824 15.9365 16.2701 -0.10524
lowerback 0.52413 2.69217 4.00781
upperback -8.56035 3.8547 -0.813119
thorax -9.00986 1.58299 -3.41226
lowerneck 26.4684 -12.896 -30.2839
upperneck -23.9936 -21.4498 45.9757
head -0.958531 -14.2424 25.4204
rclavicle 6.21823e-015 1.31198e-014
rhumerus -33.631 1.42065 -86.9668
rradius 60.457
rwrist 3.12064
rhand -3.36369 -5.63864
rfingers 7.12502
rthumb 22.3649 -34.3641
lclavicle 6.21823e-015 1.31198e-014
lhumerus -58.9211 -17.5896 103.178
lradius 77.2275
lwrist 54.9806
lhand -27.5085 -15.5538
lfingers 7.12502
lthumb -0.911256 14.424
rfemur -38.0978 2.59329 16.2205
rtibia 31.2251
rfoot -9.42051 8.96337
rtoes -31.0817
lfemur -10.3981 -13.2752 -16.7837
ltibia 21.2634
lfoot -19.1068 -14.0234
ltoes -14.0999
420
root 4.77274 16.1468 19.0444 15.8786 16.2621 -0.263324
lowerback 0.380297 2.62785 4.02463
upperback -8.5586 3.76619 -0.7525
thorax -8.93346 1.54336 -3.34235
lowerneck 26.2822 -12.8678 -30.2917
upperneck -23.6802 -21.4292 45.9816
head -0.847294 -14.2205 25.3621
rclavicle 3.08613e-014 2.64384e-014
rhumerus -34.4505 1.0257 -87.1843
rradius 59.6667
rwrist 3.55423
rhand -3.3436 -5.42459
rfingers 7.12502
rthumb 22.3842 -34.1477
lclavicle 3.08613e-014 2.64384e-014
lhumerus -58.892 -16.9511 103.142
lradius 77.2427
lwrist 55.0868
lhand -27.539 -15.4139
lfingers 7.12502
lthumb -0.940664 14.5638
rfemur -37.9017 2.48534 16.6033
rtibia 31.2804
rfoot -9.60695 9.11019
rtoes -30.8617
lfemur -10.0705 -12.9339 -16.6534
ltibia 21.1765
lfoot -19.119 -13.5562
ltoes -15.2899
421
root 4.75774 16.1504 19.1051 15.8393 16.2317 -0.417014
lowerback 0.202025 2.57059 4.00217
upperback -8.54767 3.68317 -0.691092
thorax -8.82797 1.51043 -3.24819
lowerneck 26.1097 -12.8481 -30.2901
upperneck -23.4023 -21.4142 45.9957
head -0.745031 -14.204 25.3128
rclavicle -5.81445e-015 1.98785e-016
rhumerus -35.1895 0.564864 -87.3368
rradius 58.8047
rwrist 4.16954
rhand -3.31748 -5.05153
rfingers 7.12502
rthumb 22.4092 -33.7716
lclavicle -5.81445e-015 1.98785e-016
lhumerus -58.8015 -16.3726 103.117
lradius 77.2152
lwrist 55.1
lhand -27.5686 -15.2696
lfingers 7.12502
lthumb -0.969295 14.7079
rfemur -37.7261 2.39223 16.9765
rtibia 31.3199
rfoot -9.78414 9.26558
rtoes -30.6327
lfemur -9.74935 -12.5306 -16.5184
ltibia 21.0443
lfoot -19.1244 -13.098
ltoes -16.4987
422
root 4.74128 16.154 19.1645 15.8196 16.1836 -0.558641
lowerback 0.00672896 2.51663 3.93157
upperback -8.54095 3.60158 -0.63017
thorax -8.7192 1.48175 -3.12761
lowerneck 25.9461 -12.8262 -30.2963
upperneck -23.1302 -21.4023 46.0209
head -0.640874 -14.1907 25.2772
rclavicle 9.37829e-014 2.28602e-014
rhumerus -35.8723 0.0754865 -87.4393
rradius 57.8881
rwrist 4.87053
rhand -3.31711 -4.65169
rfingers 7.12502
rthumb 22.4096 -33.3718
lclavicle 9.37829e-014 2.28602e-014
lhumerus -58.6771 -15.8578 103.11
lradius 77.1534
lwrist 55.0245
lhand -27.5874 -15.1446
lfingers 7.12502
lthumb -0.987402 14.8329
rfemur -37.5737 2.32911 17.3266
rtibia 31.3532
rfoot -9.95145 9.40824
rtoes -30.4047
lfemur -9.43318 -12.084 -16.3826
ltibia 20.8626
lfoot -19.1216 -12.6561
ltoes -17.7013
423
root 4.72347 16.1573 19.2233 15.8127 16.1282 -0.677333
lowerback -0.204229 2.46202 3.80503
upperback -8.53569 3.51599 -0.570743
thorax -8.60551 1.45513 -2.97703
lowerneck 25.7956 -12.7967 -30.3158
upperneck -22.8649 -21.3884 46.0587
head -0.536895 -14.1783 25.262
rclavicle -4.32295e-014 -3.95581e-014
rhumerus -36.5013 -0.410433 -87.5047
rradius 56.9181
rwrist 5.55081
rhand -3.38868 -4.30496
rfingers 7.12502
rthumb 22.3409 -33.0333
lclavicle -4.32295e-014 -3.95581e-014
lhumerus -58.5251 -15.4099 103.123
lradius 77.0539
lwrist 54.8612
lhand -27.5702 -15.0537
lfingers 7.12502
lthumb -0.970807 14.9239
rfemur -37.4361 2.29311 17.642
rtibia 31.3943
rfoot -10.1172 9.52576
rtoes -30.1816
lfemur -9.10566 -11.6083 -16.2588
ltibia 20.6263
lfoot -19.0937 -12.2632
ltoes -18.8144
424
root 4.70498 16.1601 19.2811 15.8043 16.0842 -0.777036
lowerback -0.415218 2.39836 3.64092
upperback -8.5359 3.41723 -0.51235
thorax -8.50018 1.42418 -2.80669
lowerneck 25.6621 -12.7594 -30.3466
upperneck -22.5901 -21.376 46.0957
head -0.431661 -14.167 25.2543
rclavicle 2.8625e-014 3.53837e-014
rhumerus -37.0932 -0.866466 -87.5498
rradius 55.9063
rwrist 6.14447
rhand -3.576 -4.063
rfingers 7.12502
rthumb 22.1611 -32.8128
lclavicle 2.8625e-014 3.53837e-014
lhumerus -58.3809 -15.0298 103.158
lradius 76.9524
lwrist 54.6297
lhand -27.5205 -14.9898
lfingers 7.12502
lthumb -0.922767 14.9879
rfemur -37.2989 2.2794 17.9258
rtibia 31.4499
rfoot -10.2843 9.60556
rtoes -29.9649
lfemur -8.75515 -11.1259 -16.1435
ltibia 20.3414
lfoot -19.0568 -11.9087
ltoes -19.8731
425
root 4.68632 16.1621 19.3382 15.7787 16.0735 -0.84814
lowerback -0.624745 2.31723 3.4447
upperback -8.52716 3.29376 -0.457794
thorax -8.38825 1.38309 -2.62153
lowerneck 25.5413 -12.7175 -30.3779
upperneck -22.3134 -21.3616 46.127
head -0.330773 -14.1547 25.2479
rclavicle -1.28278e-014 -1.78906e-015
rhumerus -37.6293 -1.27511 -87.5871
rradius 54.8484
rwrist 6.60217
rhand -3.86742 -3.97188
rfingers 7.12502
rthumb 21.8813 -32.7546
lclavicle -1.28278e-014 -1.78906e-015
lhumerus -58.2414 -14.7244 103.212
lradius 76.8607
lwrist 54.3445
lhand -27.4325 -14.9725
lfingers 7.12502
lthumb -0.837835 15.0056
rfemur -37.1388 2.26486 18.1737
rtibia 31.5237
rfoot -10.4602 9.64501
rtoes -29.7511
lfemur -8.36513 -10.6585 -16.0477
ltibia 20.0169
lfoot -19.0135 -11.6159
ltoes -20.8313
426
root 4.66772 16.163 19.394 15.7373 16.0799 -0.916609
lowerback -0.841651 2.22663 3.24315
upperback -8.50857 3.15762 -0.402779
thorax -8.26145 1.33619 -2.4323
lowerneck 25.4358 -12.6697 -30.4077
upperneck -22.043 -21.3412 46.1521
head -0.239228 -14.1393 25.2458
rclavicle -4.55962e-015 1.92821e-014
rhumerus -38.1122 -1.63326 -87.6217
rradius 53.7532
rwrist 6.89832
rhand -4.25023 -4.00875
rfingers 7.12502
rthumb 21.5137 -32.834
lclavicle -4.55962e-015 1.92821e-014
lhumerus -58.1048 -14.4967 103.28
lradius 76.7864
lwrist 54.013
lhand -27.3144 -14.9798
lfingers 7.12502
lthumb -0.723782 14.9987
rfemur -36.968 2.26304 18.4101
rtibia 31.6109
rfoot -10.6412 9.65227
rtoes -29.5506
lfemur -7.94934 -10.1964 -15.9497
ltibia 19.6658
lfoot -18.9722 -11.3397
ltoes -21.77
427
root 4.6495 16.163 19.4481 15.6754 16.1032 -0.995026
lowerback -1.06211 2.12765 3.05671
upperback -8.47839 3.01126 -0.347348
thorax -8.11899 1.28312 -2.25088
lowerneck 25.3342 -12.6207 -30.4306
upperneck -21.7699 -21.3181 46.1666
head -0.152848 -14.1215 25.2367
rclavicle -2.74633e-014 5.96354e-016
rhumerus -38.5325 -1.94643 -87.6571
rradius 52.6118
rwrist 7.0521
rhand -4.73765 -4.12969
rfingers 7.12502
rthumb 21.0455 -33.0077
lclavicle -2.74633e-014 5.96354e-016
lhumerus -57.9686 -14.3502 103.356
lradius 76.7277
lwrist 53.6366
lhand -27.1848 -15.0143
lfingers 7.12502
lthumb -0.598584 14.9646
rfemur -36.7835 2.27262 18.6484
rtibia 31.7039
rfoot -10.8222 9.63385
rtoes -29.3532
lfemur -7.51531 -9.74329 -15.8388
ltibia 19.3056
lfoot -18.9354 -11.0727
ltoes -22.6936
428
root 4.6326 16.1623 19.5006 15.588 16.1585 -1.08062
lowerback -1.28302 2.01462 2.90149
upperback -8.43315 2.84734 -0.293812
thorax -7.95857 1.21902 -2.08848
lowerneck 25.2239 -12.573 -30.4489
upperneck -21.4883 -21.2947 46.1698
head -0.0662696 -14.1013 25.2154
rclavicle -3.65484e-014 -2.23633e-014
rhumerus -38.8946 -2.22395 -87.6925
rradius 51.4376
rwrist 7.11023
rhand -5.26224 -4.32964
rfingers 7.12502
rthumb 20.5414 -33.2629
lclavicle -3.65484e-014 -2.23633e-014
lhumerus -57.8257 -14.2845 103.439
lradius 76.678
lwrist 53.2305
lhand -27.063 -15.0725
lfingers 7.12502
lthumb -0.480967 14.9068
rfemur -36.5672 2.25086 18.8954
rtibia 31.7911
rfoot -11.0119 9.61251
rtoes -29.1625
lfemur -7.06956 -9.31544 -15.7202
ltibia 18.96
lfoot -18.8978 -10.8265
ltoes -23.525
429
root 4.61639 16.161 19.5517 15.486 16.2419 -1.1947
lowerback -1.50393 1.89328 2.78818
upperback -8.39034 2.67471 -0.236541
thorax -7.79916 1.14729 -1.94632
lowerneck 25.1262 -12.5217 -30.4665
upperneck -21.2005 -21.2706 46.1591
head 0.0154245 -14.0795 25.1869
rclavicle 1.38777e-014 8.54774e-015
rhumerus -39.2171 -2.49414 -87.7116
rradius 50.2149
rwrist 7.12595
rhand -5.80499 -4.52156
rfingers 7.12502
rthumb 20.0198 -33.5102
lclavicle 1.38777e-014 8.54774e-015
lhumerus -57.6857 -14.2966 103.534
lradius 76.6168
lwrist 52.8142
lhand -26.9685 -15.1563
lfingers 7.12502
lthumb -0.38964 14.8231
rfemur -36.3361 2.21504 19.1711
rtibia 31.8625
rfoot -11.1956 9.5853
rtoes -28.9746
lfemur -6.64351 -8.9046 -15.5675
ltibia 18.6514
lfoot -18.8666 -10.5892
ltoes -24.3076
